<?xml version="1.0" standalone="no"?>
<!DOCTYPE svg PUBLIC "-//W3C//DTD SVG 20010904//EN"
 "http://www.w3.org/TR/2001/REC-SVG-20010904/DTD/svg10.dtd">
<svg version="1.0" xmlns="http://www.w3.org/2000/svg"
 width="1010.000000pt" height="1010.000000pt" viewBox="0 0 1010.000000 1010.000000"
 preserveAspectRatio="xMidYMid meet">
<metadata>
Created by potrace 1.11, written by Peter Selinger 2001-2013
</metadata>
<g transform="translate(0.000000,1010.000000) scale(0.100000,-0.100000)"
fill="#000000" stroke="none">
<path d="M4819 9286 c-2 -2 -53 -6 -114 -10 -60 -4 -121 -8 -135 -10 -14 -3
-52 -7 -85 -11 -33 -3 -85 -10 -115 -15 -30 -5 -71 -11 -90 -14 -75 -11 -115
-18 -120 -21 -3 -2 -26 -6 -50 -10 -25 -3 -63 -11 -85 -17 -22 -5 -51 -12 -64
-15 -111 -20 -416 -114 -581 -178 -120 -46 -379 -172 -456 -221 -210 -132
-316 -214 -432 -332 -92 -95 -156 -191 -192 -291 -25 -68 -29 -92 -27 -168 2
-71 7 -99 28 -143 49 -103 127 -181 202 -201 85 -23 162 18 307 159 64 64 205
170 340 257 347 225 797 409 1215 496 33 7 62 13 65 14 3 1 32 5 65 10 33 5
62 9 65 10 3 1 34 5 70 9 36 5 73 10 82 12 113 21 601 20 703 -1 11 -2 43 -7
70 -10 28 -3 59 -8 70 -10 11 -3 36 -7 55 -9 19 -3 69 -12 110 -21 41 -9 82
-18 90 -20 21 -4 189 -54 220 -65 316 -111 620 -266 780 -397 30 -25 107 -95
170 -156 185 -179 263 -240 388 -302 62 -30 121 -51 181 -61 18 -4 44 14 123
88 261 240 315 325 274 431 -22 60 -96 130 -271 262 -176 133 -289 206 -520
340 -93 54 -240 140 -325 190 -233 139 -331 186 -535 255 -104 35 -317 92
-395 105 -19 3 -42 8 -50 10 -8 3 -33 7 -55 10 -22 3 -50 7 -63 9 -12 3 -68
10 -125 16 -56 6 -118 13 -137 16 -41 7 -644 16 -651 10z"/>
<path d="M5047 8124 c-1 -1 -56 -4 -122 -8 -66 -3 -129 -8 -141 -10 -18 -4
-82 -13 -149 -21 -191 -24 -613 -149 -810 -239 -16 -8 -69 -32 -117 -54 -264
-122 -497 -280 -680 -463 -193 -191 -205 -281 -58 -426 101 -101 201 -136 311
-112 112 25 294 121 469 247 236 170 535 277 940 336 184 27 589 28 773 2 271
-39 493 -103 680 -196 141 -70 223 -128 347 -244 198 -184 297 -220 415 -151
46 27 70 52 176 189 l78 99 -16 31 c-14 27 -72 106 -138 185 -11 13 -51 56
-90 95 -267 271 -579 436 -1196 631 -143 45 -241 71 -309 81 -19 3 -46 7 -60
10 -22 3 -112 10 -258 18 -23 1 -43 1 -45 0z"/>
<path d="M1723 7759 c-85 -17 -96 -50 -99 -304 -4 -276 -12 -474 -20 -505 -34
-131 -36 -252 -7 -354 15 -55 17 -141 18 -931 0 -478 -4 -904 -8 -945 -20
-179 -21 -200 -33 -370 -14 -200 -7 -541 12 -625 2 -11 6 -36 9 -55 19 -142
62 -290 93 -324 154 -163 708 -691 1026 -977 27 -24 59 -53 71 -64 90 -85 483
-426 685 -594 107 -90 205 -172 218 -182 48 -41 509 -406 547 -434 22 -17 42
-33 45 -36 15 -18 440 -329 449 -329 6 0 11 4 11 9 0 5 22 55 50 112 l49 104
-4 1280 c-7 1785 -11 1998 -37 2105 -23 92 -100 233 -177 324 -54 64 -171 183
-631 645 -414 416 -802 813 -955 976 -26 28 -79 84 -119 126 -60 63 -136 146
-286 310 -41 45 -91 100 -175 194 -44 50 -82 92 -85 95 -10 10 -248 288 -318
371 -51 61 -73 97 -78 123 -8 55 -40 143 -64 176 -43 61 -121 93 -187 79z"/>
<path d="M8230 7565 c-92 -24 -145 -62 -232 -165 -25 -30 -113 -123 -195 -206
-135 -137 -321 -334 -463 -488 -30 -33 -76 -83 -101 -111 -25 -27 -64 -70 -85
-95 -21 -24 -46 -51 -54 -60 -8 -9 -49 -54 -91 -100 -135 -150 -292 -324 -330
-365 -20 -22 -47 -52 -60 -66 -232 -258 -518 -544 -709 -709 -466 -402 -613
-613 -635 -915 -3 -33 -7 -85 -10 -115 -4 -53 -12 -191 -20 -335 -25 -477 -25
-1471 0 -2340 2 -66 4 -167 6 -225 3 -171 40 -259 124 -300 37 -18 57 -21 97
-17 72 9 126 45 250 168 133 133 233 211 488 382 179 119 338 231 350 246 3 4
57 47 120 96 505 394 865 699 1079 915 295 298 449 552 545 900 22 82 51 238
62 335 3 28 7 59 9 70 2 11 7 58 10 105 4 47 8 103 10 125 14 151 19 617 20
1860 l0 1420 -70 1 c-38 0 -90 -5 -115 -11z"/>
<path d="M4985 6860 c-33 -4 -98 -11 -145 -14 -157 -13 -242 -23 -375 -46
-207 -36 -381 -102 -525 -200 -76 -52 -228 -200 -263 -257 -11 -17 69 -145
138 -221 36 -40 109 -81 174 -98 67 -17 148 -14 226 8 22 6 45 13 50 14 6 1
71 23 144 49 224 77 360 105 537 110 216 6 416 -49 615 -171 152 -92 325 -120
469 -75 115 36 185 98 253 223 l26 47 -47 53 c-87 100 -247 250 -344 323 -240
182 -465 262 -738 262 -74 0 -162 -3 -195 -7z"/>
</g>
</svg>
